<mxfile host="app.diagrams.net" agent="Mozilla/5.0 (X11; Linux x86_64) AppleWebKit/537.36 (KHTML, like Gecko) Chrome/136.0.0.0 Safari/537.36" version="27.0.9">
  <diagram name="Page-1" id="pOD29hwekjlrXBInAIg7">
    <mxGraphModel dx="2253" dy="797" grid="1" gridSize="10" guides="1" tooltips="1" connect="1" arrows="1" fold="1" page="1" pageScale="1" pageWidth="827" pageHeight="1169" math="0" shadow="0">
      <root>
        <mxCell id="0" />
        <mxCell id="1" parent="0" />
        <mxCell id="RNqQ6qtLA7qJFd5542pB-1" value="Users" style="shape=umlLifeline;perimeter=lifelinePerimeter;whiteSpace=wrap;html=1;container=0;dropTarget=0;collapsible=0;recursiveResize=0;outlineConnect=0;portConstraint=eastwest;newEdgeStyle={&quot;edgeStyle&quot;:&quot;elbowEdgeStyle&quot;,&quot;elbow&quot;:&quot;vertical&quot;,&quot;curved&quot;:0,&quot;rounded&quot;:0};" vertex="1" parent="1">
          <mxGeometry x="50" y="90" width="100" height="800" as="geometry" />
        </mxCell>
        <mxCell id="RNqQ6qtLA7qJFd5542pB-2" value="" style="html=1;points=[];perimeter=orthogonalPerimeter;outlineConnect=0;targetShapes=umlLifeline;portConstraint=eastwest;newEdgeStyle={&quot;edgeStyle&quot;:&quot;elbowEdgeStyle&quot;,&quot;elbow&quot;:&quot;vertical&quot;,&quot;curved&quot;:0,&quot;rounded&quot;:0};" vertex="1" parent="RNqQ6qtLA7qJFd5542pB-1">
          <mxGeometry x="45" y="70" width="10" height="710" as="geometry" />
        </mxCell>
        <mxCell id="RNqQ6qtLA7qJFd5542pB-3" value="" style="html=1;points=[];perimeter=orthogonalPerimeter;outlineConnect=0;targetShapes=umlLifeline;portConstraint=eastwest;newEdgeStyle={&quot;edgeStyle&quot;:&quot;elbowEdgeStyle&quot;,&quot;elbow&quot;:&quot;vertical&quot;,&quot;curved&quot;:0,&quot;rounded&quot;:0};" vertex="1" parent="RNqQ6qtLA7qJFd5542pB-1">
          <mxGeometry x="50" y="120" width="10" height="80" as="geometry" />
        </mxCell>
        <mxCell id="RNqQ6qtLA7qJFd5542pB-4" value="App Mobile" style="shape=umlLifeline;perimeter=lifelinePerimeter;whiteSpace=wrap;html=1;container=0;dropTarget=0;collapsible=0;recursiveResize=0;outlineConnect=0;portConstraint=eastwest;newEdgeStyle={&quot;edgeStyle&quot;:&quot;elbowEdgeStyle&quot;,&quot;elbow&quot;:&quot;vertical&quot;,&quot;curved&quot;:0,&quot;rounded&quot;:0};" vertex="1" parent="1">
          <mxGeometry x="270" y="90" width="100" height="800" as="geometry" />
        </mxCell>
        <mxCell id="RNqQ6qtLA7qJFd5542pB-5" value="" style="html=1;points=[];perimeter=orthogonalPerimeter;outlineConnect=0;targetShapes=umlLifeline;portConstraint=eastwest;newEdgeStyle={&quot;edgeStyle&quot;:&quot;elbowEdgeStyle&quot;,&quot;elbow&quot;:&quot;vertical&quot;,&quot;curved&quot;:0,&quot;rounded&quot;:0};" vertex="1" parent="RNqQ6qtLA7qJFd5542pB-4">
          <mxGeometry x="45" y="80" width="10" height="700" as="geometry" />
        </mxCell>
        <mxCell id="RNqQ6qtLA7qJFd5542pB-6" value="" style="html=1;points=[[0,0,0,0,5],[0,1,0,0,-5],[1,0,0,0,5],[1,1,0,0,-5]];perimeter=orthogonalPerimeter;outlineConnect=0;targetShapes=umlLifeline;portConstraint=eastwest;newEdgeStyle={&quot;curved&quot;:0,&quot;rounded&quot;:0};" vertex="1" parent="RNqQ6qtLA7qJFd5542pB-4">
          <mxGeometry x="40" y="220" width="10" height="40" as="geometry" />
        </mxCell>
        <mxCell id="RNqQ6qtLA7qJFd5542pB-7" value="verifie les informations" style="html=1;align=left;spacingLeft=2;endArrow=block;rounded=0;edgeStyle=orthogonalEdgeStyle;curved=0;rounded=0;" edge="1" parent="RNqQ6qtLA7qJFd5542pB-4" target="RNqQ6qtLA7qJFd5542pB-6">
          <mxGeometry relative="1" as="geometry">
            <mxPoint x="45" y="200" as="sourcePoint" />
            <Array as="points">
              <mxPoint x="75" y="230" />
            </Array>
          </mxGeometry>
        </mxCell>
        <mxCell id="RNqQ6qtLA7qJFd5542pB-8" value="Demande de mise a jour de signalement" style="html=1;verticalAlign=bottom;endArrow=block;edgeStyle=elbowEdgeStyle;elbow=vertical;curved=0;rounded=0;" edge="1" parent="1" source="RNqQ6qtLA7qJFd5542pB-2" target="RNqQ6qtLA7qJFd5542pB-5">
          <mxGeometry relative="1" as="geometry">
            <mxPoint x="205" y="180" as="sourcePoint" />
            <Array as="points">
              <mxPoint x="190" y="170" />
            </Array>
          </mxGeometry>
        </mxCell>
        <mxCell id="RNqQ6qtLA7qJFd5542pB-9" value="Renvoi la page du signalement" style="html=1;verticalAlign=bottom;endArrow=block;edgeStyle=elbowEdgeStyle;elbow=horizontal;curved=0;rounded=0;" edge="1" parent="1" source="RNqQ6qtLA7qJFd5542pB-5" target="RNqQ6qtLA7qJFd5542pB-3">
          <mxGeometry relative="1" as="geometry">
            <mxPoint x="185" y="210" as="sourcePoint" />
            <Array as="points">
              <mxPoint x="200" y="210" />
            </Array>
          </mxGeometry>
        </mxCell>
        <mxCell id="RNqQ6qtLA7qJFd5542pB-10" value="System" style="shape=umlLifeline;perimeter=lifelinePerimeter;whiteSpace=wrap;html=1;container=0;dropTarget=0;collapsible=0;recursiveResize=0;outlineConnect=0;portConstraint=eastwest;newEdgeStyle={&quot;edgeStyle&quot;:&quot;elbowEdgeStyle&quot;,&quot;elbow&quot;:&quot;vertical&quot;,&quot;curved&quot;:0,&quot;rounded&quot;:0};" vertex="1" parent="1">
          <mxGeometry x="480" y="90" width="100" height="810" as="geometry" />
        </mxCell>
        <mxCell id="RNqQ6qtLA7qJFd5542pB-11" value="" style="html=1;points=[];perimeter=orthogonalPerimeter;outlineConnect=0;targetShapes=umlLifeline;portConstraint=eastwest;newEdgeStyle={&quot;edgeStyle&quot;:&quot;elbowEdgeStyle&quot;,&quot;elbow&quot;:&quot;vertical&quot;,&quot;curved&quot;:0,&quot;rounded&quot;:0};" vertex="1" parent="RNqQ6qtLA7qJFd5542pB-10">
          <mxGeometry x="45" y="70" width="10" height="710" as="geometry" />
        </mxCell>
        <mxCell id="RNqQ6qtLA7qJFd5542pB-12" value="" style="html=1;points=[[0,0,0,0,5],[0,1,0,0,-5],[1,0,0,0,5],[1,1,0,0,-5]];perimeter=orthogonalPerimeter;outlineConnect=0;targetShapes=umlLifeline;portConstraint=eastwest;newEdgeStyle={&quot;curved&quot;:0,&quot;rounded&quot;:0};" vertex="1" parent="RNqQ6qtLA7qJFd5542pB-10">
          <mxGeometry x="40" y="260" width="10" height="90" as="geometry" />
        </mxCell>
        <mxCell id="RNqQ6qtLA7qJFd5542pB-13" value="BD" style="shape=umlLifeline;perimeter=lifelinePerimeter;whiteSpace=wrap;html=1;container=0;dropTarget=0;collapsible=0;recursiveResize=0;outlineConnect=0;portConstraint=eastwest;newEdgeStyle={&quot;edgeStyle&quot;:&quot;elbowEdgeStyle&quot;,&quot;elbow&quot;:&quot;vertical&quot;,&quot;curved&quot;:0,&quot;rounded&quot;:0};" vertex="1" parent="1">
          <mxGeometry x="710" y="90" width="100" height="810" as="geometry" />
        </mxCell>
        <mxCell id="RNqQ6qtLA7qJFd5542pB-14" value="" style="html=1;points=[];perimeter=orthogonalPerimeter;outlineConnect=0;targetShapes=umlLifeline;portConstraint=eastwest;newEdgeStyle={&quot;edgeStyle&quot;:&quot;elbowEdgeStyle&quot;,&quot;elbow&quot;:&quot;vertical&quot;,&quot;curved&quot;:0,&quot;rounded&quot;:0};" vertex="1" parent="RNqQ6qtLA7qJFd5542pB-13">
          <mxGeometry x="45" y="70" width="10" height="710" as="geometry" />
        </mxCell>
        <mxCell id="RNqQ6qtLA7qJFd5542pB-15" value="" style="html=1;points=[];perimeter=orthogonalPerimeter;outlineConnect=0;targetShapes=umlLifeline;portConstraint=eastwest;newEdgeStyle={&quot;edgeStyle&quot;:&quot;elbowEdgeStyle&quot;,&quot;elbow&quot;:&quot;vertical&quot;,&quot;curved&quot;:0,&quot;rounded&quot;:0};" vertex="1" parent="RNqQ6qtLA7qJFd5542pB-13">
          <mxGeometry x="40" y="260" width="10" height="80" as="geometry" />
        </mxCell>
        <mxCell id="RNqQ6qtLA7qJFd5542pB-16" value="Failed" style="shape=umlFrame;whiteSpace=wrap;html=1;pointerEvents=0;" vertex="1" parent="1">
          <mxGeometry x="40" y="520" width="760" height="70" as="geometry" />
        </mxCell>
        <mxCell id="RNqQ6qtLA7qJFd5542pB-17" value="Met a jour les informations du signalement" style="html=1;verticalAlign=bottom;endArrow=open;dashed=1;endSize=8;curved=0;rounded=0;" edge="1" parent="1" target="RNqQ6qtLA7qJFd5542pB-4">
          <mxGeometry relative="1" as="geometry">
            <mxPoint x="110" y="280" as="sourcePoint" />
            <mxPoint x="219.5" y="280" as="targetPoint" />
          </mxGeometry>
        </mxCell>
        <mxCell id="RNqQ6qtLA7qJFd5542pB-18" value="Renvoie une reponse" style="html=1;verticalAlign=bottom;endArrow=open;dashed=1;endSize=8;curved=0;rounded=0;" edge="1" parent="1" target="RNqQ6qtLA7qJFd5542pB-10">
          <mxGeometry relative="1" as="geometry">
            <mxPoint x="750" y="410" as="sourcePoint" />
            <mxPoint x="670" y="410" as="targetPoint" />
          </mxGeometry>
        </mxCell>
        <mxCell id="RNqQ6qtLA7qJFd5542pB-19" value="" style="endArrow=open;endFill=1;endSize=12;html=1;rounded=0;" edge="1" parent="1">
          <mxGeometry width="160" relative="1" as="geometry">
            <mxPoint x="320" y="349.99999999999994" as="sourcePoint" />
            <mxPoint x="520" y="349.99999999999994" as="targetPoint" />
          </mxGeometry>
        </mxCell>
        <mxCell id="RNqQ6qtLA7qJFd5542pB-20" value="Envoie les informations" style="edgeLabel;html=1;align=center;verticalAlign=middle;resizable=0;points=[];" vertex="1" connectable="0" parent="RNqQ6qtLA7qJFd5542pB-19">
          <mxGeometry x="0.045" y="-1" relative="1" as="geometry">
            <mxPoint x="-4" y="-11" as="offset" />
          </mxGeometry>
        </mxCell>
        <mxCell id="RNqQ6qtLA7qJFd5542pB-21" value="" style="endArrow=open;endFill=1;endSize=12;html=1;rounded=0;" edge="1" parent="1" target="RNqQ6qtLA7qJFd5542pB-13">
          <mxGeometry width="160" relative="1" as="geometry">
            <mxPoint x="530" y="360" as="sourcePoint" />
            <mxPoint x="690" y="360" as="targetPoint" />
          </mxGeometry>
        </mxCell>
        <mxCell id="RNqQ6qtLA7qJFd5542pB-22" value="Met a jour les informations" style="edgeLabel;html=1;align=center;verticalAlign=middle;resizable=0;points=[];" vertex="1" connectable="0" parent="RNqQ6qtLA7qJFd5542pB-21">
          <mxGeometry x="-0.0821" y="-3" relative="1" as="geometry">
            <mxPoint x="5" y="-13" as="offset" />
          </mxGeometry>
        </mxCell>
        <mxCell id="RNqQ6qtLA7qJFd5542pB-23" value="Renvoie la reponse" style="html=1;verticalAlign=bottom;endArrow=open;dashed=1;endSize=8;curved=0;rounded=0;" edge="1" parent="1" target="RNqQ6qtLA7qJFd5542pB-4">
          <mxGeometry relative="1" as="geometry">
            <mxPoint x="520" y="420" as="sourcePoint" />
            <mxPoint x="440" y="420" as="targetPoint" />
          </mxGeometry>
        </mxCell>
        <mxCell id="RNqQ6qtLA7qJFd5542pB-24" value="Renvoie sur la page des signalements" style="html=1;verticalAlign=bottom;endArrow=open;dashed=1;endSize=8;curved=0;rounded=0;" edge="1" parent="1" source="RNqQ6qtLA7qJFd5542pB-5">
          <mxGeometry relative="1" as="geometry">
            <mxPoint x="180" y="470" as="sourcePoint" />
            <mxPoint x="100" y="470" as="targetPoint" />
          </mxGeometry>
        </mxCell>
        <mxCell id="RNqQ6qtLA7qJFd5542pB-25" value="Success" style="shape=umlFrame;whiteSpace=wrap;html=1;pointerEvents=0;" vertex="1" parent="1">
          <mxGeometry x="40" y="440" width="760" height="70" as="geometry" />
        </mxCell>
        <mxCell id="RNqQ6qtLA7qJFd5542pB-26" value="Renvoie un message d&#39;erreur" style="html=1;verticalAlign=bottom;endArrow=open;dashed=1;endSize=8;curved=0;rounded=0;" edge="1" parent="1">
          <mxGeometry relative="1" as="geometry">
            <mxPoint x="315" y="554.5799999999999" as="sourcePoint" />
            <mxPoint x="100" y="554.5799999999999" as="targetPoint" />
          </mxGeometry>
        </mxCell>
        <mxCell id="RNqQ6qtLA7qJFd5542pB-27" value="Citoyens" style="shape=umlFrame;whiteSpace=wrap;html=1;pointerEvents=0;" vertex="1" parent="1">
          <mxGeometry x="-13" y="430" width="853" height="200" as="geometry" />
        </mxCell>
        <mxCell id="RNqQ6qtLA7qJFd5542pB-29" value="Renvoie sur la page des signalements" style="html=1;verticalAlign=bottom;endArrow=open;dashed=1;endSize=8;curved=0;rounded=0;" edge="1" parent="1">
          <mxGeometry relative="1" as="geometry">
            <mxPoint x="315" y="690" as="sourcePoint" />
            <mxPoint x="100" y="690" as="targetPoint" />
          </mxGeometry>
        </mxCell>
        <mxCell id="RNqQ6qtLA7qJFd5542pB-30" value="Renvoie un message d&#39;erreur" style="html=1;verticalAlign=bottom;endArrow=open;dashed=1;endSize=8;curved=0;rounded=0;" edge="1" parent="1">
          <mxGeometry relative="1" as="geometry">
            <mxPoint x="315" y="774.5799999999999" as="sourcePoint" />
            <mxPoint x="100" y="774.5799999999999" as="targetPoint" />
          </mxGeometry>
        </mxCell>
        <mxCell id="RNqQ6qtLA7qJFd5542pB-31" value="Failed" style="shape=umlFrame;whiteSpace=wrap;html=1;pointerEvents=0;" vertex="1" parent="1">
          <mxGeometry x="40" y="740" width="760" height="70" as="geometry" />
        </mxCell>
        <mxCell id="RNqQ6qtLA7qJFd5542pB-32" value="Success" style="shape=umlFrame;whiteSpace=wrap;html=1;pointerEvents=0;" vertex="1" parent="1">
          <mxGeometry x="40" y="660" width="760" height="70" as="geometry" />
        </mxCell>
        <mxCell id="RNqQ6qtLA7qJFd5542pB-33" value="Mairie" style="shape=umlFrame;whiteSpace=wrap;html=1;pointerEvents=0;" vertex="1" parent="1">
          <mxGeometry x="-13" y="650" width="853" height="200" as="geometry" />
        </mxCell>
      </root>
    </mxGraphModel>
  </diagram>
</mxfile>
